# xmcd
# Track frame offsets:
# 150
# 14512
# 30322
# 49900
# 65912
# 86497
# 107435
# 125017
#
# Disc length: 1896 seconds
# Revision: 2
# Processed by: cddbd v1.4PL0 Copyright (c) Steve Scherf et al.
# Submitted via: VisiTrax 2.9.3.171 - For more info visit www.synapsa.com
#
DISCID=66076608
DTITLE=Various Artist - A Sample of The Songwriters Series
DYEAR=1994
DGENRE=
TTITLE0=Kostas - Ain't that Lonely Yet
TTITLE1=Kostas - Good Mornin' Memory
TTITLE2=Pat Alger - That Summer
TTITLE3=Pat Alger - Tear In Mama's Eye
TTITLE4=Jill Colucci - No One Else On Earth
TTITLE5=Jill Colucci - Chains On The Wind
TTITLE6=Jon Vezner - Where've You Been
TTITLE7=Jon Vezner - Something Still
EXTD=
EXTT0=
EXTT1=
EXTT2=
EXTT3=
EXTT4=
EXTT5=
EXTT6=
EXTT7=
PLAYORDER=
